# xmcd
#
# Track frame offsets:
#	187
#	19630
#	30652
#	44590
#	79210
#	90080
#	101432
#	117635
#	127317
#	144832
#	157415
#	196620
#	213227
#	225922
#	245765
#	260847
#	272390
#
# Disc length: 3834 seconds
#
# Revision: 1
# Processed by: cddbd v1.5.1PL0 Copyright (c) Steve Scherf et al.
# Submitted via: CDex 1.50Beta5
#
DISCID=e60ef811
DTITLE=Mi-Ke - 永遠のリバプールサウンド〜Please Please Me,LOVE.
DYEAR=1993
DGENRE=Pop
TTITLE0=Please Please Me,Love.
TTITLE1=SHE’S NOT THERE
TTITLE2=BUS STOP
TTITLE3=リバプール・メドレー:FOR YOUR LOVE〜HAVE I THE RIGHT〜I GO TO
TTITLE4=ピンと針
TTITLE5=悲しき願い
TTITLE6=TELL ME
TTITLE7=LOVE POTION NO.9
TTITLE8=AS TEARS GO BY
TTITLE9=愛なき世界
TTITLE10=ハーマンズ・ハーミッツ・メドレー:朝からゴキゲン〜ハートがドキドキ〜ヘンリー8世君〜シルエット〜あの
TTITLE11=HERE,THERE AND EVERYWHERE
TTITLE12=BECAUSE
TTITLE13=WHILE MY GUITAR GENTLY WEEPS
TTITLE14=GOLDEN SLUMBERS〜CARRY THAT WEIGHT
TTITLE15=AND I LOVE HER
TTITLE16=GOOD NIGHT
EXTD=
EXTT0=
EXTT1=
EXTT2=
EXTT3=
EXTT4=
EXTT5=
EXTT6=
EXTT7=
EXTT8=
EXTT9=
EXTT10=
EXTT11=
EXTT12=
EXTT13=
EXTT14=
EXTT15=
EXTT16=
PLAYORDER=
